<svg width="500" height="150" viewBox="0 0 500 150" fill="none" xmlns="http://www.w3.org/2000/svg">
<g clip-path="url(#clip0_2_3)">
<path d="M107.318 37.6016H138.97V17.2861H147.983V67H138.97V46.6846H107.318V67H98.3042V17.2861H107.318V37.6016ZM196.033 54.5889C196.033 55.8369 195.814 57.189 195.375 58.645C194.935 60.078 194.219 61.4185 193.225 62.6665C192.254 63.8914 190.972 64.9199 189.377 65.752C187.805 66.584 185.887 67 183.622 67H167.363C166.115 67 164.763 66.7804 163.307 66.3413C161.874 65.9022 160.533 65.1973 159.285 64.2266C158.06 63.2327 157.032 61.95 156.2 60.3784C155.368 58.7837 154.952 56.8538 154.952 54.5889C154.952 53.3408 155.171 51.9888 155.61 50.5327C156.049 49.0767 156.754 47.7362 157.725 46.5112C158.719 45.2632 160.002 44.2231 161.573 43.3911C163.168 42.5591 165.098 42.1431 167.363 42.1431H183.622V50.7407H167.363C166.138 50.7407 165.19 51.1221 164.52 51.8848C163.85 52.6243 163.515 53.5488 163.515 54.6582C163.515 55.8369 163.896 56.7614 164.659 57.4316C165.444 58.0788 166.369 58.4023 167.432 58.4023H183.622C184.847 58.4023 185.795 58.0326 186.465 57.293C187.135 56.5534 187.47 55.6289 187.47 54.5195V41.9351C187.47 40.7563 187.1 39.8203 186.361 39.127C185.644 38.4336 184.731 38.0869 183.622 38.0869H163.827V29.5239H183.622C184.87 29.5239 186.211 29.7435 187.644 30.1826C189.1 30.6217 190.44 31.3382 191.665 32.332C192.913 33.3027 193.953 34.5854 194.785 36.1802C195.617 37.7518 196.033 39.6701 196.033 41.9351V54.5889ZM236.525 38.5376H216.245C215.02 38.5376 214.095 38.8496 213.471 39.4736C212.847 40.0745 212.535 40.9644 212.535 42.1431V67H203.521V42.1431C203.521 40.5946 203.718 39.2078 204.111 37.9829C204.504 36.758 205.024 35.6833 205.671 34.7588C206.341 33.8112 207.104 33.0138 207.959 32.3667C208.814 31.6965 209.704 31.1533 210.628 30.7373C211.576 30.3213 212.524 30.0208 213.471 29.8359C214.442 29.6279 215.343 29.5239 216.175 29.5239H236.525V38.5376ZM251.641 21.8276H242.627V13.6807H251.641V21.8276ZM251.641 67H242.627V29.5239H251.641V67ZM296.536 54.3462C296.536 55.8947 296.339 57.293 295.946 58.541C295.553 59.766 295.033 60.8522 294.386 61.7998C293.739 62.7243 292.988 63.5216 292.133 64.1919C291.278 64.839 290.376 65.3706 289.429 65.7866C288.504 66.2026 287.557 66.5146 286.586 66.7227C285.638 66.9076 284.737 67 283.882 67H259.476V57.9863H283.812C285.037 57.9863 285.962 57.6743 286.586 57.0503C287.21 56.4263 287.522 55.5249 287.522 54.3462C287.406 51.9425 286.193 50.7407 283.882 50.7407H269.911C267.923 50.7407 266.236 50.394 264.849 49.7007C263.462 49.0073 262.33 48.1406 261.452 47.1006C260.597 46.0605 259.972 44.9396 259.58 43.7378C259.21 42.536 259.025 41.415 259.025 40.375C259.025 38.3643 259.383 36.6771 260.1 35.3135C260.816 33.9268 261.717 32.8058 262.804 31.9507C263.89 31.0955 265.069 30.4831 266.34 30.1133C267.611 29.7204 268.801 29.5239 269.911 29.5239H292.063V38.5376H269.98C269.518 38.5376 269.148 38.5954 268.871 38.7109C268.616 38.8034 268.42 38.9421 268.281 39.127C268.166 39.2887 268.096 39.4736 268.073 39.6816C268.05 39.8665 268.039 40.0514 268.039 40.2363C268.062 40.6061 268.131 40.895 268.247 41.103C268.362 41.311 268.501 41.4613 268.663 41.5537C268.847 41.6462 269.044 41.7039 269.252 41.7271C269.483 41.7271 269.703 41.7271 269.911 41.7271H283.882C286.193 41.7271 288.158 42.1431 289.775 42.9751C291.393 43.8071 292.699 44.8587 293.693 46.1299C294.687 47.3779 295.403 48.7415 295.842 50.2207C296.305 51.6999 296.536 53.075 296.536 54.3462ZM344.551 67H335.537V42.1431C335.537 40.9644 335.237 40.0745 334.636 39.4736C334.035 38.8496 333.133 38.5376 331.932 38.5376H315.672V29.5239H331.932C332.787 29.5239 333.688 29.6279 334.636 29.8359C335.583 30.0208 336.519 30.3213 337.444 30.7373C338.391 31.1533 339.293 31.6965 340.148 32.3667C341.003 33.0138 341.754 33.8112 342.401 34.7588C343.049 35.6833 343.569 36.758 343.961 37.9829C344.354 39.2078 344.551 40.5946 344.551 42.1431V67ZM312.032 67H303.019V13.6807H312.032V67Z" fill="#023E8A"/>
<path d="M132.044 114.346C132.044 116.149 131.732 117.825 131.108 119.373C130.484 120.922 129.606 122.262 128.474 123.395C127.364 124.527 126.035 125.417 124.487 126.064C122.938 126.688 121.251 127 119.425 127H86.3867V117.986H119.425C120.535 117.986 121.401 117.674 122.025 117.05C122.649 116.403 122.961 115.502 122.961 114.346V77.2861H132.044V114.346ZM179.852 114.589C179.852 115.837 179.632 117.189 179.193 118.645C178.754 120.078 178.037 121.418 177.043 122.667C176.073 123.891 174.79 124.92 173.195 125.752C171.624 126.584 169.705 127 167.44 127H151.181C149.933 127 148.581 126.78 147.125 126.341C145.692 125.902 144.352 125.197 143.104 124.227C141.879 123.233 140.85 121.95 140.018 120.378C139.186 118.784 138.77 116.854 138.77 114.589C138.77 113.341 138.99 111.989 139.429 110.533C139.868 109.077 140.573 107.736 141.543 106.511C142.537 105.263 143.82 104.223 145.392 103.391C146.986 102.559 148.916 102.143 151.181 102.143H167.44V110.741H151.181C149.956 110.741 149.009 111.122 148.338 111.885C147.668 112.624 147.333 113.549 147.333 114.658C147.333 115.837 147.714 116.761 148.477 117.432C149.263 118.079 150.187 118.402 151.25 118.402H167.44C168.665 118.402 169.613 118.033 170.283 117.293C170.953 116.553 171.289 115.629 171.289 114.52V101.935C171.289 100.756 170.919 99.8203 170.179 99.127C169.463 98.4336 168.55 98.0869 167.44 98.0869H147.645V89.5239H167.44C168.688 89.5239 170.029 89.7435 171.462 90.1826C172.918 90.6217 174.258 91.3382 175.483 92.332C176.731 93.3027 177.771 94.5854 178.604 96.1802C179.436 97.7518 179.852 99.6701 179.852 101.935V114.589ZM229.08 127H220.066V106.199C220.066 105.021 219.858 103.969 219.442 103.044C219.049 102.097 218.506 101.288 217.813 100.618C217.12 99.9474 216.299 99.439 215.352 99.0923C214.427 98.7225 213.422 98.5376 212.335 98.5376H196.562V127H187.548V93.9961C187.548 93.3721 187.663 92.7943 187.895 92.2627C188.126 91.708 188.449 91.2342 188.865 90.8413C189.281 90.4253 189.767 90.1017 190.321 89.8706C190.876 89.6395 191.465 89.5239 192.089 89.5239H212.405C213.537 89.5239 214.728 89.651 215.976 89.9053C217.247 90.1595 218.495 90.5755 219.72 91.1533C220.968 91.708 222.146 92.4245 223.256 93.3027C224.388 94.1579 225.382 95.2095 226.237 96.4575C227.116 97.6825 227.809 99.1038 228.317 100.722C228.826 102.34 229.08 104.165 229.08 106.199V127ZM277.754 130.605C277.754 132.154 277.557 133.541 277.165 134.766C276.772 136.014 276.252 137.1 275.604 138.024C274.957 138.972 274.206 139.769 273.351 140.417C272.496 141.087 271.595 141.63 270.647 142.046C269.722 142.462 268.775 142.762 267.804 142.947C266.857 143.155 265.955 143.259 265.1 143.259H248.841V134.246H265.1C266.325 134.246 267.238 133.934 267.839 133.31C268.44 132.686 268.74 131.784 268.74 130.605V102.143C268.74 100.964 268.44 100.075 267.839 99.4736C267.238 98.8496 266.325 98.5376 265.1 98.5376H248.841C247.731 98.5376 246.853 98.8843 246.206 99.5776C245.559 100.248 245.235 101.103 245.235 102.143V114.346C245.235 115.525 245.547 116.426 246.171 117.05C246.795 117.674 247.708 117.986 248.91 117.986H265.1V127H248.841C247.986 127 247.084 126.908 246.137 126.723C245.189 126.515 244.242 126.203 243.294 125.787C242.369 125.371 241.48 124.839 240.625 124.192C239.769 123.522 239.018 122.724 238.371 121.8C237.724 120.852 237.204 119.766 236.811 118.541C236.418 117.293 236.222 115.895 236.222 114.346V102.143C236.222 101.288 236.314 100.387 236.499 99.439C236.707 98.4914 237.019 97.5553 237.435 96.6309C237.851 95.6833 238.383 94.7819 239.03 93.9268C239.7 93.0716 240.497 92.3205 241.422 91.6733C242.369 91.0262 243.456 90.5062 244.681 90.1133C245.906 89.7204 247.292 89.5239 248.841 89.5239H265.1C265.955 89.5239 266.857 89.6279 267.804 89.8359C268.775 90.0208 269.722 90.3213 270.647 90.7373C271.595 91.1533 272.496 91.6965 273.351 92.3667C274.206 93.0138 274.957 93.8112 275.604 94.7588C276.252 95.6833 276.772 96.758 277.165 97.9829C277.557 99.2078 277.754 100.595 277.754 102.143V130.605ZM295.157 81.8276H286.144V73.6807H295.157V81.8276ZM295.157 127H286.144V89.5239H295.157V127ZM344.94 114.346C344.94 115.895 344.744 117.293 344.351 118.541C343.958 119.766 343.438 120.852 342.791 121.8C342.144 122.724 341.393 123.522 340.538 124.192C339.682 124.839 338.781 125.371 337.833 125.787C336.909 126.203 335.961 126.515 334.991 126.723C334.043 126.908 333.142 127 332.287 127H316.027C314.479 127 313.092 126.804 311.867 126.411C310.642 126.018 309.556 125.498 308.608 124.851C307.684 124.18 306.887 123.418 306.216 122.562C305.569 121.707 305.038 120.818 304.622 119.893C304.206 118.945 303.894 117.998 303.686 117.05C303.501 116.08 303.408 115.178 303.408 114.346V102.143C303.408 99.8319 303.824 97.8789 304.656 96.2842C305.511 94.6663 306.563 93.3605 307.811 92.3667C309.082 91.3498 310.457 90.6217 311.937 90.1826C313.416 89.7435 314.779 89.5239 316.027 89.5239H332.287V98.5376H316.097C314.895 98.5376 313.982 98.8496 313.358 99.4736C312.734 100.075 312.422 100.964 312.422 102.143V114.277C312.422 115.502 312.722 116.426 313.323 117.05C313.947 117.674 314.849 117.986 316.027 117.986H332.287C333.512 117.986 334.424 117.674 335.025 117.05C335.626 116.426 335.927 115.525 335.927 114.346V73.6807H344.94V114.346Z" fill="#48CAE4"/>
<path d="M18.8147 73.146C16.6861 74.9052 16.3867 78.0568 18.1459 80.1853C19.9052 82.3139 23.0568 82.6133 25.1853 80.8541L18.8147 73.146ZM63.5824 36.1459L18.8147 73.146L25.1853 80.8541L69.9531 43.8541L63.5824 36.1459Z" fill="#6C757D"/>
<path d="M73 123L22 77" stroke="#6C757D" stroke-width="10" stroke-linecap="round"/>
<rect x="58.5" y="17.5" width="29" height="29" rx="4.5" fill="#6C757D" stroke="#6C757D"/>
<rect x="442.5" y="126.5" width="29" height="29" rx="4.5" transform="rotate(-180 442.5 126.5)" fill="#6C757D" stroke="#6C757D"/>
<path d="M482.185 70.854C484.314 69.0948 484.613 65.9432 482.854 63.8147C481.095 61.6861 477.943 61.3867 475.815 63.1459L482.185 70.854ZM437.418 107.854L482.185 70.854L475.815 63.1459L431.047 100.146L437.418 107.854Z" fill="#6C757D"/>
<path d="M428 21L479 67" stroke="#6C757D" stroke-width="10" stroke-linecap="round"/>
<path d="M406 21L357 123" stroke="#6C757D" stroke-width="10" stroke-linecap="round"/>
</g>
<defs>
<clipPath id="clip0_2_3">
<rect width="500" height="150" fill="white"/>
</clipPath>
</defs>
</svg>
