<svg width="500" height="500" viewBox="0 0 500 500" fill="none" xmlns="http://www.w3.org/2000/svg">
<rect width="500" height="500" fill="white"/>
<g clip-path="url(#clip0_33_178)">
<path fill-rule="evenodd" clip-rule="evenodd" d="M174.913 205.16C174.625 205.119 174.332 205.145 174.055 205.236C173.779 205.328 173.529 205.483 173.323 205.688C173.117 205.894 172.962 206.145 172.869 206.42C172.777 206.696 172.75 206.99 172.791 207.278V233.763C167.163 233.119 161.495 232.882 155.832 233.056C131.105 233.072 125.45 241.208 125.45 270.879C125.45 300.909 131.456 308.685 158.31 308.685C167.902 308.662 177.476 307.832 186.929 306.203C188.695 305.852 189.411 305.144 189.411 303.378V206.926C189.452 206.637 189.425 206.343 189.333 206.066C189.24 205.79 189.084 205.539 188.877 205.333C188.67 205.127 188.418 204.973 188.141 204.882C187.864 204.791 187.569 204.766 187.281 204.808H174.913V205.16ZM141.702 270.515C141.702 251.074 143.82 246.842 158.661 246.842H173.139V293.128C168.221 293.82 163.263 294.174 158.297 294.187C143.117 293.844 141.702 288.545 141.702 270.527V270.515ZM204.947 250.375V306.563C204.906 306.851 204.932 307.145 205.024 307.422C205.116 307.698 205.271 307.949 205.477 308.155C205.683 308.361 205.934 308.516 206.21 308.608C206.487 308.7 206.781 308.726 207.069 308.685H219.437C219.725 308.726 220.019 308.7 220.296 308.608C220.572 308.516 220.823 308.361 221.029 308.155C221.235 307.949 221.39 307.698 221.482 307.422C221.574 307.145 221.6 306.851 221.559 306.563V254.627C221.559 248.621 224.041 247.206 232.16 247.206H244.528C245.943 247.206 247.01 246.499 247.01 245.084V236.96C247.05 236.352 246.851 235.752 246.456 235.289C246.06 234.825 245.499 234.534 244.892 234.479C239.414 233.482 233.853 233.008 228.285 233.064C217.667 233.428 204.947 234.487 204.947 250.387V250.375ZM257.591 237.304C257.591 235.889 257.942 235.537 259.357 235.186C265.464 233.958 271.672 233.303 277.9 233.229C279.141 233.18 280.382 233.126 281.623 233.068C304.944 233.068 312.716 240.84 312.716 255.326V303.031C312.854 303.92 312.635 304.829 312.105 305.557C311.576 306.286 310.78 306.775 309.891 306.919C300.012 308.942 289.944 309.889 279.861 309.744C261.487 309.744 251.949 306.563 251.949 287.13C251.949 269.82 260.78 265.58 277.036 265.58H296.82V258.511C296.82 250.739 292.229 247.558 281.627 247.558H259.704C257.938 247.558 257.582 247.206 257.582 245.436L257.591 237.304ZM278.082 276.885C271.017 276.885 267.836 279.366 267.836 286.071C267.836 293.844 271.369 295.61 281.263 295.61C286.361 295.618 291.447 295.144 296.456 294.195V276.885H278.082ZM380.193 232.721C379.904 232.679 379.61 232.705 379.334 232.797C379.057 232.889 378.806 233.044 378.6 233.25C378.394 233.456 378.239 233.707 378.147 233.984C378.055 234.26 378.029 234.554 378.071 234.843V293.844H362.878C350.51 293.844 347.333 292.785 347.333 272.996V234.838C347.333 233.424 346.626 232.716 345.567 232.716H333.572C333.284 232.676 332.99 232.702 332.714 232.795C332.438 232.887 332.188 233.042 331.982 233.248C331.777 233.454 331.622 233.705 331.53 233.981C331.439 234.257 331.412 234.55 331.454 234.838V276.177C331.454 304.441 338.519 308.329 362.89 308.329C372.824 308.441 382.751 307.731 392.569 306.207C393.983 305.856 394.686 305.856 394.686 304.085V234.838C394.728 234.55 394.702 234.257 394.61 233.981C394.518 233.705 394.363 233.454 394.158 233.248C393.952 233.042 393.702 232.887 393.426 232.795C393.15 232.702 392.857 232.676 392.569 232.716L380.193 232.721ZM412.696 238.375C412.696 236.609 413.403 235.893 415.178 235.55C424.75 234.005 434.438 233.297 444.132 233.432C470.986 233.432 476.992 241.204 476.992 270.531C476.992 300.917 470.986 308.689 446.254 308.689C440.592 308.822 434.927 308.585 429.295 307.982V332.713C429.337 333.001 429.311 333.295 429.219 333.572C429.127 333.848 428.972 334.099 428.766 334.305C428.56 334.511 428.309 334.666 428.032 334.758C427.756 334.85 427.462 334.877 427.173 334.835H414.806C414.517 334.877 414.223 334.85 413.947 334.758C413.67 334.666 413.419 334.511 413.213 334.305C413.007 334.099 412.852 333.848 412.76 333.572C412.668 333.295 412.642 333.001 412.684 332.713L412.696 238.375ZM428.948 247.206V293.844C433.539 294.195 438.842 294.551 443.425 294.551C458.266 294.551 460.384 289.96 460.384 270.879C460.384 252.505 458.97 247.206 444.132 247.206H428.948Z" fill="#575757"/>
<path fill-rule="evenodd" clip-rule="evenodd" d="M53.093 184.606C53.8872 184.342 54.6814 184.077 55.5749 183.725L111.031 165L107.155 225.416C106.5 235.764 101.956 245.482 94.436 252.621C89.4504 257.321 83.3824 260.72 76.7696 262.515L22 280.533L25.1809 221.528V220.841C25.6455 213.149 28.2822 205.746 32.785 199.492C37.2877 193.238 43.4718 188.389 50.6195 185.508C51.5005 185.14 52.2947 184.855 53.093 184.606ZM55.9182 199.27C51.2818 201.164 47.2691 204.32 44.3352 208.379C41.4012 212.438 39.6634 217.238 39.319 222.235V222.586L37.2011 260.744L72.534 249.084C76.7537 247.891 80.6288 245.71 83.8386 242.722C88.6717 238.064 91.5735 231.757 91.9666 225.056L94.7917 186.174L59.1073 198.169L55.9182 199.27ZM60.8818 230.363C59.7118 229.199 58.9071 227.718 58.5667 226.103C58.2262 224.488 58.3647 222.809 58.9652 221.271C59.5656 219.734 60.602 218.405 61.9469 217.449C63.2919 216.492 64.8869 215.949 66.5362 215.886C68.6527 216.028 70.6527 216.906 72.1906 218.367C73.6825 219.889 74.5275 221.929 74.5485 224.06C74.5695 226.191 73.765 228.247 72.3034 229.798C70.8419 231.349 68.8368 232.274 66.7084 232.379C64.5799 232.485 62.4892 231.762 60.8818 230.363Z" fill="#0095FF"/>
</g>
<defs>
<clipPath id="clip0_33_178">
<rect width="455" height="169.827" fill="white" transform="translate(22 165)"/>
</clipPath>
</defs>
</svg>
