<svg width="1310" height="500" viewBox="0 0 1310 500" fill="none" xmlns="http://www.w3.org/2000/svg">
<path d="M62.6431 62.6431V438.502H203.923V345.204L345.204 203.923H435.836L297.222 343.871V438.502H438.502V62.6431H297.222V155.941L155.941 297.222H63.976L203.923 155.941V62.6431H62.6431Z" fill="#CAF0F8"/>
<path d="M563.137 228.643V87.6209H568.399V228.643H563.137ZM539.984 228.643V87.6209H545.246V228.643H539.984ZM551.56 228.643V87.6209H556.822V228.643H551.56ZM654.17 228.643V87.6209H659.432V228.643H654.17ZM631.017 228.643V87.6209H636.279V228.643H631.017ZM642.593 228.643V87.6209H647.855V228.643H642.593ZM574.713 149.187V143.925H624.702V149.187H574.713ZM574.713 160.763V155.501H624.702V160.763H574.713ZM574.713 172.339V167.077H624.702V172.339H574.713ZM696.31 228.643L747.351 87.6209H752.964L701.923 228.643H696.31ZM671.754 228.643L722.795 87.6209H728.233L677.366 228.643H671.754ZM684.032 228.643L734.898 87.6209H740.686L689.644 228.643H684.032ZM799.095 228.643L753.315 102.179L756.121 94.2861L804.707 228.643H799.095ZM786.817 228.643L747.351 119.368L749.982 111.3L792.429 228.643H786.817ZM774.538 228.643L741.212 136.382L744.019 128.489L780.151 228.643H774.538ZM724.9 181.987L726.829 176.725H749.982L751.912 181.987H724.9ZM720.69 193.738L722.62 188.476H754.192L756.121 193.738H720.69ZM716.481 205.315L718.41 200.053H758.402L760.331 205.315H716.481ZM840.112 228.643V87.6209H845.374V228.643H840.112ZM816.959 228.643V87.6209H822.221V228.643H816.959ZM828.536 228.643V87.6209H833.798V228.643H828.536ZM851.689 169.708V164.446H892.908C899.573 164.446 905.595 162.985 910.974 160.061C916.47 157.138 920.797 152.987 923.954 147.608C927.228 142.229 928.865 135.915 928.865 128.665C928.865 121.415 927.228 115.1 923.954 109.721C920.797 104.342 916.47 100.191 910.974 97.268C905.595 94.3446 899.573 92.8829 892.908 92.8829H851.689V87.6209H892.908C900.509 87.6209 907.408 89.3749 913.605 92.8829C919.92 96.274 924.889 101.068 928.514 107.266C932.256 113.346 934.127 120.479 934.127 128.665C934.127 136.85 932.256 144.041 928.514 150.239C924.889 156.32 919.92 161.114 913.605 164.622C907.408 168.013 900.509 169.708 892.908 169.708H851.689ZM851.689 158.132V152.87H892.908C899.69 152.87 905.42 150.765 910.097 146.556C914.891 142.229 917.289 136.265 917.289 128.665C917.289 121.064 914.891 115.159 910.097 110.949C905.42 106.623 899.69 104.459 892.908 104.459H851.689V99.1974H892.908C898.404 99.1974 903.374 100.425 907.817 102.881C912.26 105.219 915.827 108.611 918.516 113.054C921.206 117.381 922.551 122.584 922.551 128.665C922.551 134.745 921.206 140.007 918.516 144.451C915.827 148.777 912.26 152.168 907.817 154.624C903.374 156.963 898.404 158.132 892.908 158.132H851.689ZM851.689 146.556V141.294H892.908C896.416 141.294 899.398 140.3 901.853 138.312C904.426 136.207 905.712 132.991 905.712 128.665C905.712 124.221 904.426 121.006 901.853 119.018C899.398 117.03 896.416 116.036 892.908 116.036H851.689V110.774H892.908C897.936 110.774 902.204 112.294 905.712 115.334C909.22 118.375 910.974 122.818 910.974 128.665C910.974 134.511 909.22 138.955 905.712 141.995C902.204 145.035 897.936 146.556 892.908 146.556H851.689ZM926.936 228.643L902.204 174.444C903.023 174.327 903.841 174.21 904.66 174.093C905.595 173.86 906.472 173.567 907.291 173.216L932.724 228.643H926.936ZM914.131 228.643L889.751 175.672C890.686 175.672 891.622 175.672 892.557 175.672C893.61 175.555 894.603 175.438 895.539 175.321L919.92 228.643H914.131ZM901.327 228.643L877.122 175.847H882.91L907.115 228.643H901.327ZM970.806 228.643V87.6209H976.068V228.643H970.806ZM947.654 228.643V87.6209H952.916V228.643H947.654ZM959.23 228.643V87.6209H964.492V228.643H959.23ZM1042.15 208.121C1033.84 208.121 1027 206.543 1021.62 203.385C1016.24 200.111 1013.32 195.785 1012.85 190.406L1017.94 189.003C1017.94 192.978 1020.16 196.311 1024.61 199C1029.17 201.573 1035.01 202.859 1042.15 202.859C1049.51 202.859 1055.48 201.514 1060.04 198.825C1064.71 196.136 1067.05 192.686 1067.05 188.476C1067.05 184.501 1065.12 181.285 1061.26 178.829C1057.41 176.374 1052.14 174.21 1045.48 172.339L1034.6 169.182C1020.1 164.973 1009.17 159.652 1001.8 153.221C994.436 146.789 990.753 137.961 990.753 126.735C990.753 118.667 992.975 111.534 997.418 105.336C1001.98 99.022 1008.12 94.0523 1015.84 90.4273C1023.67 86.8024 1032.5 84.9899 1042.32 84.9899C1051.21 84.9899 1059.22 86.4516 1066.35 89.3749C1073.6 92.1813 1079.56 96.2155 1084.24 101.478C1089.04 106.74 1092.08 112.879 1093.36 119.895L1088.28 121.298C1087.22 115.1 1084.59 109.663 1080.38 104.986C1076.17 100.308 1070.79 96.6833 1064.25 94.1107C1057.7 91.5382 1050.39 90.2519 1042.32 90.2519C1033.43 90.2519 1025.48 91.889 1018.47 95.1631C1011.57 98.3204 1006.07 102.647 1001.98 108.143C998.003 113.639 996.015 119.953 996.015 127.086C996.015 136.675 999.347 144.392 1006.01 150.239C1012.79 155.969 1022.79 160.646 1036.01 164.271L1046.88 167.253C1054.95 169.475 1061.21 172.164 1065.65 175.321C1070.09 178.479 1072.31 182.747 1072.31 188.126C1072.31 194.089 1069.57 198.942 1064.07 202.684C1058.57 206.309 1051.27 208.121 1042.15 208.121ZM1042.15 219.698C1031.15 219.698 1021.92 217.301 1014.43 212.506C1007.07 207.595 1002.74 201.222 1001.45 193.388L1006.71 191.984C1007.65 198.767 1011.27 204.204 1017.59 208.297C1024.02 212.389 1032.21 214.436 1042.15 214.436C1049.4 214.436 1055.77 213.325 1061.26 211.103C1066.76 208.881 1071.03 205.783 1074.07 201.807C1077.11 197.831 1078.63 193.271 1078.63 188.126C1078.63 180.993 1075.94 175.38 1070.56 171.287C1065.18 167.077 1057.76 163.686 1048.28 161.114L1037.58 158.132C1026.24 154.975 1017.53 150.999 1011.45 146.205C1005.37 141.41 1002.33 135.038 1002.33 127.086C1002.33 121.122 1004.02 115.86 1007.42 111.3C1010.92 106.74 1015.72 103.173 1021.8 100.601C1027.88 97.9111 1034.72 96.5664 1042.32 96.5664C1049.45 96.5664 1055.83 97.6772 1061.44 99.899C1067.17 102.004 1071.85 105.044 1075.47 109.02C1079.1 112.996 1081.32 117.614 1082.14 122.876L1076.87 124.28C1076.06 117.498 1072.43 112.06 1066 107.967C1059.69 103.875 1051.79 101.828 1042.32 101.828C1035.66 101.828 1029.69 102.939 1024.43 105.161C1019.17 107.266 1015.02 110.248 1011.98 114.106C1009.05 117.848 1007.59 122.175 1007.59 127.086C1007.59 133.751 1010.22 139.013 1015.48 142.872C1020.86 146.731 1028.64 150.122 1038.81 153.045L1049.34 156.027C1060.21 159.067 1068.69 163.102 1074.77 168.13C1080.85 173.041 1083.89 179.706 1083.89 188.126C1083.89 194.323 1082.14 199.819 1078.63 204.613C1075.12 209.291 1070.21 212.974 1063.89 215.663C1057.7 218.353 1050.45 219.698 1042.15 219.698ZM1042.15 231.274C1033.02 231.274 1024.78 229.871 1017.41 227.065C1010.16 224.141 1004.14 220.107 999.347 214.962C994.67 209.7 991.63 203.502 990.227 196.369L995.313 194.966C996.483 201.281 999.114 206.776 1003.21 211.454C1007.42 216.014 1012.85 219.581 1019.52 222.153C1026.18 224.726 1033.73 226.012 1042.15 226.012C1051.73 226.012 1060.09 224.434 1067.23 221.276C1074.48 218.002 1080.09 213.559 1084.07 207.946C1088.16 202.216 1090.21 195.609 1090.21 188.126C1090.21 178.186 1086.76 170.235 1079.86 164.271C1072.96 158.307 1063.25 153.513 1050.74 149.888L1040.39 146.906C1031.86 144.451 1025.31 141.761 1020.75 138.838C1016.19 135.915 1013.91 131.997 1013.91 127.086C1013.91 121.356 1016.6 116.796 1021.97 113.405C1027.35 109.897 1034.14 108.143 1042.32 108.143C1050.27 108.143 1056.82 109.78 1061.97 113.054C1067.11 116.328 1070.03 120.596 1070.74 125.858L1065.65 127.261C1065.42 123.169 1063.13 119.836 1058.81 117.264C1054.6 114.691 1049.1 113.405 1042.32 113.405C1035.89 113.405 1030.39 114.633 1025.83 117.088C1021.39 119.544 1019.17 122.76 1019.17 126.735C1019.17 130.36 1021.21 133.284 1025.31 135.505C1029.52 137.727 1035.01 139.832 1041.79 141.82L1051.79 144.802C1065.94 149.011 1076.76 154.507 1084.24 161.289C1091.73 167.954 1095.47 177.017 1095.47 188.476C1095.47 196.779 1093.19 204.204 1088.63 210.752C1084.18 217.184 1077.93 222.212 1069.86 225.837C1061.91 229.462 1052.67 231.274 1042.15 231.274ZM1132.5 228.643V87.6209H1137.77V228.643H1132.5ZM1109.35 228.643V87.6209H1114.61V228.643H1109.35ZM1120.93 228.643V87.6209H1126.19V228.643H1120.93ZM1223.54 228.643V87.6209H1228.8V228.643H1223.54ZM1200.38 228.643V87.6209H1205.65V228.643H1200.38ZM1211.96 228.643V87.6209H1217.22V228.643H1211.96ZM1144.08 149.187V143.925H1194.07V149.187H1144.08ZM1144.08 160.763V155.501H1194.07V160.763H1144.08ZM1144.08 172.339V167.077H1194.07V172.339H1144.08Z" fill="white"/>
<path d="M572.834 419.204C561.959 419.204 552.546 416.865 544.594 412.187C536.76 407.393 530.679 400.962 526.353 392.893C522.143 384.825 520.038 375.938 520.038 366.232V362.549H525.3V366.232C525.3 375.003 527.171 383.012 530.913 390.262C534.772 397.512 540.209 403.301 547.225 407.627C554.358 411.837 562.894 413.941 572.834 413.941C582.773 413.941 591.251 411.837 598.267 407.627C605.4 403.301 610.837 397.512 614.579 390.262C618.438 383.012 620.367 375.003 620.367 366.232V275.55H625.629V366.232C625.629 375.938 623.466 384.825 619.14 392.893C614.93 400.962 608.908 407.393 601.073 412.187C593.239 416.865 583.826 419.204 572.834 419.204ZM572.834 396.051C566.169 396.051 560.614 394.706 556.171 392.016C551.844 389.327 548.57 385.76 546.348 381.317C544.244 376.757 543.191 371.728 543.191 366.232V362.549H548.453V366.232C548.453 373.015 550.383 378.803 554.241 383.597C558.1 388.391 564.298 390.789 572.834 390.789C581.37 390.789 587.567 388.391 591.426 383.597C595.285 378.803 597.215 373.015 597.215 366.232V275.55H602.477V366.232C602.477 371.728 601.366 376.757 599.144 381.317C597.039 385.76 593.765 389.327 589.322 392.016C584.995 394.706 579.499 396.051 572.834 396.051ZM572.834 407.627C564.064 407.627 556.58 405.756 550.383 402.014C544.302 398.272 539.625 393.303 536.35 387.105C533.193 380.791 531.615 373.833 531.615 366.232V362.549H536.877V366.232C536.877 372.898 538.221 378.978 540.911 384.474C543.717 389.853 547.81 394.18 553.189 397.454C558.568 400.728 565.116 402.365 572.834 402.365C580.668 402.365 587.217 400.728 592.479 397.454C597.858 394.18 601.892 389.853 604.581 384.474C607.388 378.978 608.791 372.898 608.791 366.232V275.55H614.053V366.232C614.053 373.833 612.416 380.791 609.142 387.105C605.985 393.303 601.307 398.272 595.11 402.014C589.029 405.756 581.604 407.627 572.834 407.627ZM657.123 416.573L708.165 275.55H713.778L662.736 416.573H657.123ZM632.567 416.573L683.609 275.55H689.046L638.18 416.573H632.567ZM644.845 416.573L695.712 275.55H701.5L650.458 416.573H644.845ZM759.908 416.573L714.129 290.109L716.935 282.216L765.521 416.573H759.908ZM747.63 416.573L708.165 307.298L710.796 299.229L753.243 416.573H747.63ZM735.352 416.573L702.026 324.312L704.832 316.419L740.965 416.573H735.352ZM685.714 369.916L687.643 364.654H710.796L712.726 369.916H685.714ZM681.504 381.668L683.434 376.406H715.006L716.935 381.668H681.504ZM677.295 393.244L679.224 387.982H719.215L721.145 393.244H677.295ZM894.59 416.573V275.55H899.852V416.573H894.59ZM871.437 416.573V275.55H876.699V416.573H871.437ZM883.014 416.573V275.55H888.276V416.573H883.014ZM800.926 416.573V275.55H806.188V416.573H800.926ZM777.773 416.573V275.55H783.035V416.573H777.773ZM789.35 416.573V275.55H794.612V416.573H789.35ZM865.123 367.986L812.503 292.389V283.093L865.123 358.69V367.986ZM865.123 388.333L812.503 312.735V303.439L865.123 379.037V388.333ZM865.123 408.679L812.503 333.082V323.786L865.123 399.383V408.679ZM987.359 344.658V339.396H1056.29V344.658H987.359ZM987.359 356.235V350.973H1056.29V356.235H987.359ZM987.359 367.811V362.549H1056.29V367.811H987.359ZM987.008 419.204C976.017 419.204 966.019 417.333 957.015 413.591C948.128 409.732 940.469 404.47 934.037 397.805C927.606 391.139 922.636 383.422 919.128 374.652C915.62 365.765 913.866 356.235 913.866 346.061C913.866 335.888 915.62 326.417 919.128 317.646C922.636 308.76 927.606 300.983 934.037 294.318C940.469 287.653 948.128 282.449 957.015 278.708C966.019 274.849 976.017 272.919 987.008 272.919C1001.04 272.919 1013.44 276.018 1024.19 282.216C1034.95 288.296 1043.37 296.423 1049.45 306.596L1044.89 309.578C1039.28 300.106 1031.5 292.506 1021.56 286.776C1011.74 281.046 1000.22 278.181 987.008 278.181C976.718 278.181 967.422 279.935 959.12 283.443C950.817 286.951 943.684 291.804 937.721 298.002C931.757 304.199 927.138 311.449 923.864 319.751C920.707 327.937 919.128 336.707 919.128 346.061C919.128 355.416 920.707 364.245 923.864 372.547C927.138 380.732 931.757 387.924 937.721 394.121C943.684 400.319 950.817 405.171 959.12 408.679C967.422 412.187 976.718 413.941 987.008 413.941C997.065 413.941 1006.19 412.246 1014.37 408.855C1022.56 405.464 1029.63 400.728 1035.59 394.647C1041.56 388.567 1046.18 381.609 1049.45 373.775H1055.24C1051.85 382.662 1046.88 390.555 1040.33 397.454C1033.9 404.236 1026.18 409.556 1017.18 413.415C1008.17 417.274 998.117 419.204 987.008 419.204ZM987.008 396.051C976.601 396.051 967.656 393.829 960.172 389.385C952.688 384.825 946.959 378.744 942.983 371.144C939.007 363.543 937.019 355.182 937.019 346.061C937.019 336.824 939.007 328.463 942.983 320.979C946.959 313.378 952.688 307.356 960.172 302.913C967.656 298.352 976.601 296.072 987.008 296.072C997.065 296.072 1005.72 298.235 1012.97 302.562C1020.33 306.772 1026.01 312.384 1029.98 319.4L1025.42 322.382C1021.91 316.068 1016.89 311.04 1010.34 307.298C1003.79 303.439 996.012 301.51 987.008 301.51C977.654 301.51 969.585 303.556 962.803 307.649C956.138 311.624 951.051 317.003 947.543 323.786C944.035 330.451 942.281 337.876 942.281 346.061C942.281 354.247 944.035 361.731 947.543 368.513C951.051 375.178 956.138 380.557 962.803 384.65C969.585 388.625 977.654 390.613 987.008 390.613C995.077 390.613 1002.15 389.093 1008.23 386.053C1014.31 382.896 1019.17 378.803 1022.79 373.775H1029.46C1025.36 380.557 1019.69 385.994 1012.44 390.087C1005.19 394.063 996.714 396.051 987.008 396.051ZM987.008 407.627C977.654 407.627 969.176 406.048 961.575 402.891C954.092 399.617 947.602 395.174 942.106 389.561C936.727 383.948 932.576 377.458 929.652 370.091C926.846 362.608 925.443 354.598 925.443 346.061C925.443 337.525 926.846 329.574 929.652 322.207C932.576 314.723 936.727 308.175 942.106 302.562C947.602 296.832 954.092 292.389 961.575 289.232C969.176 286.074 977.654 284.496 987.008 284.496C999.053 284.496 1009.58 287.127 1018.58 292.389C1027.7 297.534 1034.78 304.374 1039.8 312.911L1035.24 315.892C1030.57 308.058 1024.13 301.802 1015.95 297.125C1007.76 292.33 998.117 289.933 987.008 289.933C975.549 289.933 965.551 292.447 957.015 297.475C948.596 302.504 942.106 309.286 937.545 317.822C932.985 326.241 930.705 335.654 930.705 346.061C930.705 356.352 932.985 365.765 937.545 374.301C942.106 382.837 948.596 389.619 957.015 394.647C965.551 399.676 975.549 402.19 987.008 402.19C998.585 402.19 1008.64 399.617 1017.18 394.472C1025.71 389.21 1032.2 382.311 1036.65 373.775H1042.61C1037.93 383.831 1030.8 392.016 1021.21 398.331C1011.62 404.528 1000.22 407.627 987.008 407.627ZM1093.49 416.573V275.55H1098.75V416.573H1093.49ZM1070.34 416.573V275.55H1075.6V416.573H1070.34ZM1081.91 416.573V275.55H1087.17V416.573H1081.91ZM1150.97 416.573V411.31H1170.27C1180.2 411.31 1189.27 409.732 1197.45 406.575C1205.75 403.301 1212.95 398.74 1219.03 392.893C1225.11 387.047 1229.78 380.148 1233.06 372.196C1236.45 364.245 1238.15 355.533 1238.15 346.061C1238.15 336.59 1236.45 327.878 1233.06 319.927C1229.78 311.975 1225.11 305.076 1219.03 299.229C1212.95 293.383 1205.75 288.881 1197.45 285.724C1189.27 282.449 1180.2 280.812 1170.27 280.812H1150.97V275.55H1170.44C1181.08 275.55 1190.85 277.304 1199.73 280.812C1208.62 284.32 1216.34 289.232 1222.89 295.546C1229.43 301.86 1234.52 309.286 1238.15 317.822C1241.77 326.358 1243.58 335.771 1243.58 346.061C1243.58 356.352 1241.77 365.823 1238.15 374.476C1234.52 383.012 1229.43 390.438 1222.89 396.752C1216.34 403.067 1208.62 407.978 1199.73 411.486C1190.85 414.877 1181.08 416.573 1170.44 416.573H1150.97ZM1139.39 416.573V275.55H1144.66V416.573H1139.39ZM1116.24 416.573V275.55H1121.5V416.573H1116.24ZM1127.82 416.573V275.55H1133.08V416.573H1127.82ZM1150.97 404.996V399.734H1170.27C1181.37 399.734 1191.14 397.454 1199.56 392.893C1207.98 388.333 1214.58 382.019 1219.38 373.95C1224.17 365.765 1226.57 356.469 1226.57 346.061C1226.57 335.537 1224.17 326.241 1219.38 318.173C1214.58 310.104 1207.98 303.79 1199.56 299.229C1191.14 294.669 1181.37 292.389 1170.27 292.389H1150.97V287.127H1170.44C1182.48 287.127 1193.13 289.699 1202.36 294.844C1211.6 299.873 1218.85 306.83 1224.11 315.717C1229.38 324.487 1232.01 334.602 1232.01 346.061C1232.01 357.521 1229.38 367.694 1224.11 376.581C1218.85 385.468 1211.6 392.426 1202.36 397.454C1193.13 402.482 1182.48 404.996 1170.44 404.996H1150.97ZM1150.97 393.42V388.158H1170.27C1179.15 388.158 1186.93 386.404 1193.59 382.896C1200.26 379.388 1205.46 374.476 1209.2 368.162C1212.95 361.731 1214.82 354.364 1214.82 346.061C1214.82 337.642 1212.95 330.275 1209.2 323.961C1205.46 317.646 1200.26 312.735 1193.59 309.227C1186.93 305.719 1179.15 303.965 1170.27 303.965H1150.97V298.703H1170.44C1180.26 298.703 1188.92 300.75 1196.4 304.842C1203.88 308.818 1209.73 314.372 1213.94 321.505C1218.15 328.521 1220.25 336.707 1220.25 346.061C1220.25 355.416 1218.15 363.66 1213.94 370.793C1209.73 377.926 1203.88 383.48 1196.4 387.456C1188.92 391.432 1180.26 393.42 1170.44 393.42H1150.97Z" fill="white"/>
</svg>
