<svg width="1310" height="500" viewBox="0 0 1310 500" fill="none" xmlns="http://www.w3.org/2000/svg">
<path d="M62.625 62.625V439.168H204.162V345.7L345.7 204.162H436.497L297.63 344.364V439.168H439.168V62.625H297.63V156.093L156.093 297.63H63.9603L204.162 156.093V62.625H62.625Z" fill="#03045E"/>
<path d="M564.029 229.625V88.3462H569.301V229.625H564.029ZM540.834 229.625V88.3462H546.106V229.625H540.834ZM552.432 229.625V88.3462H557.703V229.625H552.432ZM655.228 229.625V88.3462H660.5V229.625H655.228ZM632.033 229.625V88.3462H637.305V229.625H632.033ZM643.631 229.625V88.3462H648.902V229.625H643.631ZM575.627 150.024V144.752H625.707V150.024H575.627ZM575.627 161.621V156.35H625.707V161.621H575.627ZM575.627 173.219V167.947H625.707V173.219H575.627ZM697.445 229.625L748.579 88.3462H754.202L703.068 229.625H697.445ZM672.844 229.625L723.978 88.3462H729.426L678.467 229.625H672.844ZM685.144 229.625L736.103 88.3462H741.902L690.767 229.625H685.144ZM800.417 229.625L754.554 102.931L757.365 95.0235L806.04 229.625H800.417ZM788.116 229.625L748.579 120.151L751.215 112.068L793.739 229.625H788.116ZM775.816 229.625L742.429 137.196L745.241 129.289L781.439 229.625H775.816ZM726.087 182.883L728.02 177.612H751.215L753.148 182.883H726.087ZM721.87 194.657L723.803 189.385H755.432L757.365 194.657H721.87ZM717.653 206.254L719.585 200.983H759.65L761.582 206.254H717.653ZM841.509 229.625V88.3462H846.781V229.625H841.509ZM818.314 229.625V88.3462H823.586V229.625H818.314ZM829.911 229.625V88.3462H835.183V229.625H829.911ZM853.106 170.583V165.312H894.401C901.078 165.312 907.111 163.847 912.5 160.919C918.006 157.99 922.34 153.831 925.503 148.442C928.783 143.054 930.423 136.728 930.423 129.465C930.423 122.202 928.783 115.876 925.503 110.487C922.34 105.098 918.006 100.939 912.5 98.0108C907.111 95.0821 901.078 93.6178 894.401 93.6178H853.106V88.3462H894.401C902.015 88.3462 908.927 90.1034 915.136 93.6178C921.462 97.015 926.44 101.818 930.072 108.027C933.821 114.118 935.695 121.264 935.695 129.465C935.695 137.665 933.821 144.869 930.072 151.078C926.44 157.17 921.462 161.973 915.136 165.487C908.927 168.884 902.015 170.583 894.401 170.583H853.106ZM853.106 158.986V153.714H894.401C901.195 153.714 906.935 151.605 911.621 147.388C916.424 143.054 918.826 137.079 918.826 129.465C918.826 121.85 916.424 115.934 911.621 111.717C906.935 107.383 901.195 105.215 894.401 105.215H853.106V99.9437H894.401C899.907 99.9437 904.885 101.174 909.337 103.634C913.788 105.977 917.361 109.374 920.056 113.826C922.75 118.16 924.097 123.373 924.097 129.465C924.097 135.556 922.75 140.828 920.056 145.279C917.361 149.614 913.788 153.011 909.337 155.471C904.885 157.814 899.907 158.986 894.401 158.986H853.106ZM853.106 147.388V142.116H894.401C897.915 142.116 900.902 141.121 903.362 139.129C905.94 137.021 907.228 133.799 907.228 129.465C907.228 125.013 905.94 121.792 903.362 119.8C900.902 117.809 897.915 116.813 894.401 116.813H853.106V111.541H894.401C899.438 111.541 903.714 113.064 907.228 116.11C910.743 119.156 912.5 123.607 912.5 129.465C912.5 135.322 910.743 139.774 907.228 142.819C903.714 145.865 899.438 147.388 894.401 147.388H853.106ZM928.49 229.625L903.714 175.328C904.534 175.21 905.354 175.093 906.174 174.976C907.111 174.742 907.99 174.449 908.81 174.098L934.289 229.625H928.49ZM915.663 229.625L891.238 176.558C892.175 176.558 893.112 176.558 894.049 176.558C895.104 176.44 896.099 176.323 897.036 176.206L921.462 229.625H915.663ZM902.835 229.625L878.586 176.733H884.385L908.634 229.625H902.835ZM972.441 229.625V88.3462H977.712V229.625H972.441ZM949.246 229.625V88.3462H954.517V229.625H949.246ZM960.843 229.625V88.3462H966.115V229.625H960.843ZM1043.91 209.066C1035.59 209.066 1028.74 207.484 1023.35 204.321C1017.96 201.041 1015.03 196.707 1014.56 191.318L1019.66 189.912C1019.66 193.895 1021.89 197.234 1026.34 199.928C1030.91 202.506 1036.76 203.794 1043.91 203.794C1051.29 203.794 1057.26 202.447 1061.83 199.753C1066.52 197.058 1068.86 193.602 1068.86 189.385C1068.86 185.402 1066.93 182.181 1063.06 179.721C1059.2 177.26 1053.93 175.093 1047.25 173.219L1036.35 170.056C1021.83 165.839 1010.87 160.508 1003.49 154.065C996.114 147.622 992.424 138.778 992.424 127.532C992.424 119.449 994.649 112.303 999.101 106.094C1003.67 99.768 1009.82 94.7892 1017.55 91.1577C1025.4 87.5261 1034.24 85.7104 1044.09 85.7104C1052.99 85.7104 1061.01 87.1747 1068.16 90.1034C1075.42 92.9149 1081.4 96.9565 1086.08 102.228C1090.89 107.5 1093.93 113.65 1095.22 120.679L1090.12 122.084C1089.07 115.876 1086.43 110.428 1082.22 105.742C1078 101.057 1072.61 97.425 1066.05 94.8478C1059.49 92.2706 1052.17 90.982 1044.09 90.982C1035.18 90.982 1027.22 92.622 1020.19 95.9021C1013.28 99.0651 1007.77 103.4 1003.67 108.905C999.687 114.411 997.695 120.737 997.695 127.883C997.695 137.489 1001.03 145.221 1007.71 151.078C1014.51 156.818 1024.52 161.504 1037.76 165.136L1048.65 168.123C1056.74 170.349 1063 173.043 1067.46 176.206C1071.91 179.369 1074.13 183.645 1074.13 189.034C1074.13 195.008 1071.38 199.87 1065.87 203.618C1060.37 207.25 1053.05 209.066 1043.91 209.066ZM1043.91 220.663C1032.9 220.663 1023.64 218.262 1016.15 213.459C1008.77 208.539 1004.43 202.154 1003.14 194.305L1008.41 192.9C1009.35 199.694 1012.98 205.141 1019.31 209.241C1025.75 213.342 1033.95 215.392 1043.91 215.392C1051.17 215.392 1057.56 214.279 1063.06 212.053C1068.57 209.827 1072.84 206.723 1075.89 202.74C1078.94 198.757 1080.46 194.188 1080.46 189.034C1080.46 181.888 1077.76 176.265 1072.38 172.165C1066.99 167.947 1059.55 164.55 1050.06 161.973L1039.34 158.986C1027.98 155.823 1019.25 151.84 1013.16 147.037C1007.07 142.234 1004.02 135.849 1004.02 127.883C1004.02 121.909 1005.72 116.637 1009.12 112.068C1012.63 107.5 1017.43 103.927 1023.53 101.349C1029.62 98.6551 1036.47 97.3079 1044.09 97.3079C1051.23 97.3079 1057.62 98.4208 1063.24 100.647C1068.98 102.755 1073.66 105.801 1077.3 109.784C1080.93 113.767 1083.15 118.394 1083.97 123.666L1078.7 125.072C1077.88 118.277 1074.25 112.83 1067.81 108.73C1061.48 104.63 1053.57 102.579 1044.09 102.579C1037.41 102.579 1031.43 103.692 1026.16 105.918C1020.89 108.027 1016.73 111.014 1013.69 114.88C1010.76 118.629 1009.29 122.963 1009.29 127.883C1009.29 134.561 1011.93 139.832 1017.2 143.698C1022.59 147.564 1030.38 150.961 1040.57 153.89L1051.11 156.877C1062.01 159.923 1070.5 163.964 1076.59 169.002C1082.69 173.922 1085.73 180.599 1085.73 189.034C1085.73 195.242 1083.97 200.748 1080.46 205.551C1076.94 210.237 1072.02 213.927 1065.7 216.622C1059.49 219.316 1052.23 220.663 1043.91 220.663ZM1043.91 232.261C1034.77 232.261 1026.51 230.855 1019.13 228.044C1011.87 225.115 1005.84 221.073 1001.03 215.919C996.348 210.647 993.302 204.438 991.896 197.293L996.992 195.887C998.164 202.213 1000.8 207.719 1004.9 212.404C1009.12 216.973 1014.56 220.546 1021.24 223.123C1027.92 225.701 1035.47 226.989 1043.91 226.989C1053.52 226.989 1061.89 225.408 1069.04 222.245C1076.3 218.965 1081.92 214.513 1085.91 208.89C1090.01 203.15 1092.06 196.531 1092.06 189.034C1092.06 179.076 1088.6 171.11 1081.69 165.136C1074.78 159.161 1065.05 154.358 1052.52 150.727L1042.15 147.74C1033.6 145.279 1027.04 142.585 1022.47 139.656C1017.9 136.728 1015.62 132.803 1015.62 127.883C1015.62 122.143 1018.31 117.574 1023.7 114.177C1029.09 110.663 1035.88 108.905 1044.09 108.905C1052.05 108.905 1058.61 110.545 1063.77 113.826C1068.92 117.106 1071.85 121.382 1072.55 126.653L1067.46 128.059C1067.22 123.959 1064.94 120.62 1060.6 118.043C1056.39 115.466 1050.88 114.177 1044.09 114.177C1037.64 114.177 1032.14 115.407 1027.57 117.867C1023.12 120.327 1020.89 123.549 1020.89 127.532C1020.89 131.163 1022.94 134.092 1027.04 136.318C1031.26 138.544 1036.76 140.652 1043.56 142.644L1053.57 145.631C1067.75 149.848 1078.58 155.354 1086.08 162.149C1093.58 168.826 1097.33 177.905 1097.33 189.385C1097.33 197.703 1095.04 205.141 1090.48 211.702C1086.02 218.145 1079.76 223.182 1071.67 226.813C1063.71 230.445 1054.45 232.261 1043.91 232.261ZM1134.43 229.625V88.3462H1139.7V229.625H1134.43ZM1111.24 229.625V88.3462H1116.51V229.625H1111.24ZM1122.84 229.625V88.3462H1128.11V229.625H1122.84ZM1225.63 229.625V88.3462H1230.9V229.625H1225.63ZM1202.44 229.625V88.3462H1207.71V229.625H1202.44ZM1214.03 229.625V88.3462H1219.31V229.625H1214.03ZM1146.03 150.024V144.752H1196.11V150.024H1146.03ZM1146.03 161.621V156.35H1196.11V161.621H1146.03ZM1146.03 173.219V167.947H1196.11V173.219H1146.03Z" fill="black"/>
<path d="M573.744 420.532C562.849 420.532 553.419 418.189 545.453 413.503C537.604 408.7 531.513 402.257 527.178 394.174C522.961 386.091 520.852 377.188 520.852 367.465V363.775H526.124V367.465C526.124 376.251 527.998 384.275 531.747 391.538C535.613 398.801 541.06 404.6 548.089 408.935C555.235 413.152 563.787 415.261 573.744 415.261C583.702 415.261 592.195 413.152 599.223 408.935C606.369 404.6 611.817 398.801 615.565 391.538C619.431 384.275 621.364 376.251 621.364 367.465V276.617H626.636V367.465C626.636 377.188 624.469 386.091 620.134 394.174C615.917 402.257 609.884 408.7 602.035 413.503C594.186 418.189 584.756 420.532 573.744 420.532ZM573.744 397.337C567.067 397.337 561.502 395.99 557.051 393.296C552.716 390.601 549.436 387.028 547.21 382.577C545.102 378.008 544.047 372.971 544.047 367.465V363.775H549.319V367.465C549.319 374.259 551.252 380.058 555.118 384.861C558.984 389.664 565.192 392.065 573.744 392.065C582.296 392.065 588.505 389.664 592.37 384.861C596.236 380.058 598.169 374.259 598.169 367.465V276.617H603.441V367.465C603.441 372.971 602.328 378.008 600.102 382.577C597.993 387.028 594.713 390.601 590.262 393.296C585.927 395.99 580.421 397.337 573.744 397.337ZM573.744 408.935C564.958 408.935 557.461 407.06 551.252 403.312C545.16 399.563 540.474 394.584 537.194 388.375C534.031 382.049 532.45 375.079 532.45 367.465V363.775H537.721V367.465C537.721 374.142 539.069 380.234 541.763 385.74C544.575 391.128 548.675 395.463 554.063 398.743C559.452 402.023 566.012 403.663 573.744 403.663C581.593 403.663 588.153 402.023 593.425 398.743C598.813 395.463 602.855 391.128 605.549 385.74C608.361 380.234 609.767 374.142 609.767 367.465V276.617H615.038V367.465C615.038 375.079 613.398 382.049 610.118 388.375C606.955 394.584 602.269 399.563 596.06 403.312C589.969 407.06 582.53 408.935 573.744 408.935ZM658.187 417.896L709.322 276.617H714.945L663.81 417.896H658.187ZM633.586 417.896L684.721 276.617H690.168L639.209 417.896H633.586ZM645.887 417.896L696.845 276.617H702.644L651.51 417.896H645.887ZM761.159 417.896L715.296 291.202L718.108 283.295L766.782 417.896H761.159ZM748.859 417.896L709.322 308.423L711.957 300.34L754.482 417.896H748.859ZM736.558 417.896L703.171 325.468L705.983 317.56L742.181 417.896H736.558ZM686.829 371.155L688.762 365.883H711.957L713.89 371.155H686.829ZM682.612 382.928L684.545 377.656H716.175L718.108 382.928H682.612ZM678.395 394.526L680.328 389.254H720.392L722.325 394.526H678.395ZM896.086 417.896V276.617H901.357V417.896H896.086ZM872.891 417.896V276.617H878.162V417.896H872.891ZM884.488 417.896V276.617H889.76V417.896H884.488ZM802.251 417.896V276.617H807.523V417.896H802.251ZM779.056 417.896V276.617H784.328V417.896H779.056ZM790.654 417.896V276.617H795.925V417.896H790.654ZM866.565 369.222L813.849 293.487V284.173L866.565 359.909V369.222ZM866.565 389.605L813.849 313.87V304.557L866.565 380.292V389.605ZM866.565 409.989L813.849 334.254V324.94L866.565 400.676V409.989ZM989.024 345.851V340.58H1058.08V345.851H989.024ZM989.024 357.449V352.177H1058.08V357.449H989.024ZM989.024 369.046V363.775H1058.08V369.046H989.024ZM988.672 420.532C977.661 420.532 967.645 418.658 958.624 414.909C949.721 411.043 942.048 405.772 935.605 399.094C929.162 392.417 924.183 384.685 920.669 375.899C917.154 366.996 915.397 357.449 915.397 347.257C915.397 337.065 917.154 327.576 920.669 318.79C924.183 309.887 929.162 302.097 935.605 295.42C942.048 288.742 949.721 283.529 958.624 279.78C967.645 275.915 977.661 273.982 988.672 273.982C1002.73 273.982 1015.15 277.086 1025.92 283.295C1036.7 289.386 1045.14 297.528 1051.23 307.72L1046.66 310.707C1041.04 301.218 1033.25 293.604 1023.29 287.864C1013.45 282.123 1001.91 279.253 988.672 279.253C978.363 279.253 969.05 281.01 960.733 284.525C952.415 288.039 945.27 292.901 939.295 299.11C933.321 305.318 928.693 312.581 925.413 320.899C922.25 329.099 920.669 337.885 920.669 347.257C920.669 356.629 922.25 365.473 925.413 373.791C928.693 381.991 933.321 389.195 939.295 395.404C945.27 401.613 952.415 406.475 960.733 409.989C969.05 413.503 978.363 415.261 988.672 415.261C998.747 415.261 1007.88 413.562 1016.08 410.165C1024.28 406.767 1031.37 402.023 1037.35 395.931C1043.32 389.84 1047.95 382.869 1051.23 375.021H1057.03C1053.63 383.924 1048.65 391.831 1042.09 398.743C1035.65 405.537 1027.92 410.868 1018.9 414.733C1009.88 418.599 999.801 420.532 988.672 420.532ZM988.672 397.337C978.246 397.337 969.285 395.111 961.787 390.66C954.29 386.091 948.55 379.999 944.567 372.385C940.584 364.77 938.592 356.394 938.592 347.257C938.592 338.002 940.584 329.626 944.567 322.129C948.55 314.514 954.29 308.481 961.787 304.03C969.285 299.461 978.246 297.177 988.672 297.177C998.747 297.177 1007.42 299.344 1014.68 303.678C1022.06 307.896 1027.74 313.519 1031.72 320.547L1027.15 323.535C1023.64 317.209 1018.6 312.171 1012.04 308.423C1005.48 304.557 997.693 302.624 988.672 302.624C979.301 302.624 971.217 304.674 964.423 308.774C957.746 312.757 952.65 318.146 949.135 324.94C945.621 331.618 943.864 339.057 943.864 347.257C943.864 355.457 945.621 362.955 949.135 369.749C952.65 376.426 957.746 381.815 964.423 385.915C971.217 389.898 979.301 391.89 988.672 391.89C996.755 391.89 1003.84 390.367 1009.93 387.321C1016.03 384.158 1020.89 380.058 1024.52 375.021H1031.2C1027.1 381.815 1021.41 387.262 1014.15 391.363C1006.89 395.346 998.395 397.337 988.672 397.337ZM988.672 408.935C979.301 408.935 970.807 407.353 963.193 404.19C955.696 400.91 949.194 396.458 943.688 390.835C938.299 385.212 934.141 378.711 931.212 371.331C928.4 363.833 926.995 355.809 926.995 347.257C926.995 338.705 928.4 330.739 931.212 323.359C934.141 315.862 938.299 309.301 943.688 303.678C949.194 297.938 955.696 293.487 963.193 290.324C970.807 287.161 979.301 285.579 988.672 285.579C1000.74 285.579 1011.28 288.215 1020.3 293.487C1029.44 298.641 1036.53 305.494 1041.56 314.046L1037 317.033C1032.31 309.184 1025.87 302.917 1017.67 298.231C1009.47 293.428 999.801 291.027 988.672 291.027C977.192 291.027 967.176 293.545 958.624 298.582C950.19 303.62 943.688 310.414 939.119 318.966C934.551 327.401 932.266 336.831 932.266 347.257C932.266 357.566 934.551 366.996 939.119 375.548C943.688 384.1 950.19 390.894 958.624 395.931C967.176 400.969 977.192 403.487 988.672 403.487C1000.27 403.487 1010.34 400.91 1018.9 395.756C1027.45 390.484 1033.95 383.572 1038.4 375.021H1044.38C1039.69 385.095 1032.54 393.296 1022.94 399.621C1013.33 405.83 1001.91 408.935 988.672 408.935ZM1095.35 417.896V276.617H1100.62V417.896H1095.35ZM1072.15 417.896V276.617H1077.42V417.896H1072.15ZM1083.75 417.896V276.617H1089.02V417.896H1083.75ZM1152.93 417.896V412.625H1172.26C1182.22 412.625 1191.3 411.043 1199.5 407.88C1207.82 404.6 1215.02 400.031 1221.11 394.174C1227.2 388.317 1231.89 381.405 1235.17 373.439C1238.57 365.473 1240.27 356.746 1240.27 347.257C1240.27 337.768 1238.57 329.041 1235.17 321.075C1231.89 313.109 1227.2 306.197 1221.11 300.34C1215.02 294.482 1207.82 289.972 1199.5 286.809C1191.3 283.529 1182.22 281.889 1172.26 281.889H1152.93V276.617H1172.44C1183.1 276.617 1192.88 278.375 1201.78 281.889C1210.69 285.403 1218.42 290.324 1224.98 296.65C1231.54 302.975 1236.63 310.414 1240.27 318.966C1243.9 327.518 1245.71 336.948 1245.71 347.257C1245.71 357.566 1243.9 367.055 1240.27 375.724C1236.63 384.275 1231.54 391.714 1224.98 398.04C1218.42 404.366 1210.69 409.286 1201.78 412.8C1192.88 416.198 1183.1 417.896 1172.44 417.896H1152.93ZM1141.34 417.896V276.617H1146.61V417.896H1141.34ZM1118.14 417.896V276.617H1123.41V417.896H1118.14ZM1129.74 417.896V276.617H1135.01V417.896H1129.74ZM1152.93 406.299V401.027H1172.26C1183.39 401.027 1193.17 398.743 1201.61 394.174C1210.04 389.605 1216.66 383.279 1221.46 375.196C1226.27 366.996 1228.67 357.683 1228.67 347.257C1228.67 336.714 1226.27 327.401 1221.46 319.317C1216.66 311.234 1210.04 304.908 1201.61 300.34C1193.17 295.771 1183.39 293.487 1172.26 293.487H1152.93V288.215H1172.44C1184.5 288.215 1195.16 290.792 1204.42 295.947C1213.67 300.984 1220.94 307.954 1226.21 316.857C1231.48 325.643 1234.12 335.777 1234.12 347.257C1234.12 358.737 1231.48 368.929 1226.21 377.832C1220.94 386.735 1213.67 393.706 1204.42 398.743C1195.16 403.78 1184.5 406.299 1172.44 406.299H1152.93ZM1152.93 394.701V389.43H1172.26C1181.17 389.43 1188.96 387.672 1195.63 384.158C1202.31 380.644 1207.52 375.724 1211.27 369.398C1215.02 362.955 1216.9 355.574 1216.9 347.257C1216.9 338.822 1215.02 331.442 1211.27 325.116C1207.52 318.79 1202.31 313.87 1195.63 310.356C1188.96 306.841 1181.17 305.084 1172.26 305.084H1152.93V299.813H1172.44C1182.28 299.813 1190.95 301.863 1198.44 305.963C1205.94 309.946 1211.8 315.51 1216.02 322.656C1220.23 329.685 1222.34 337.885 1222.34 347.257C1222.34 356.629 1220.23 364.887 1216.02 372.033C1211.8 379.179 1205.94 384.744 1198.44 388.727C1190.95 392.71 1182.28 394.701 1172.44 394.701H1152.93Z" fill="black"/>
</svg>
