<svg width="524" height="200" viewBox="0 0 524 200" fill="none" xmlns="http://www.w3.org/2000/svg">
<path d="M25 25V175H81.383V137.766L137.766 81.383H173.936L118.617 137.234V175H175V25H118.617V62.234L62.234 118.617H25.5319L81.383 62.234V25H25Z" fill="#03045E"/>
<path d="M224.74 92V35.72H226.84V92H224.74ZM215.5 92V35.72H217.6V92H215.5ZM220.12 92V35.72H222.22V92H220.12ZM261.07 92V35.72H263.17V92H261.07ZM251.83 92V35.72H253.93V92H251.83ZM256.45 92V35.72H258.55V92H256.45ZM229.36 60.29V58.19H249.31V60.29H229.36ZM229.36 64.91V62.81H249.31V64.91H229.36ZM229.36 69.53V67.43H249.31V69.53H229.36ZM277.888 92L298.258 35.72H300.498L280.128 92H277.888ZM268.088 92L288.458 35.72H290.628L270.328 92H268.088ZM272.988 92L293.288 35.72H295.598L275.228 92H272.988ZM318.908 92L300.638 41.53L301.758 38.38L321.148 92H318.908ZM314.008 92L298.258 48.39L299.308 45.17L316.248 92H314.008ZM309.108 92L295.808 55.18L296.928 52.03L311.348 92H309.108ZM289.298 73.38L290.068 71.28H299.308L300.078 73.38H289.298ZM287.618 78.07L288.388 75.97H300.988L301.758 78.07H287.618ZM285.938 82.69L286.708 80.59H302.667L303.438 82.69H285.938ZM335.277 92V35.72H337.377V92H335.277ZM326.037 92V35.72H328.137V92H326.037ZM330.657 92V35.72H332.757V92H330.657ZM339.897 68.48V66.38H356.347C359.007 66.38 361.41 65.7967 363.557 64.63C365.75 63.4633 367.477 61.8067 368.737 59.66C370.044 57.5133 370.697 54.9933 370.697 52.1C370.697 49.2067 370.044 46.6867 368.737 44.54C367.477 42.3933 365.75 40.7367 363.557 39.57C361.41 38.4033 359.007 37.82 356.347 37.82H339.897V35.72H356.347C359.38 35.72 362.134 36.42 364.607 37.82C367.127 39.1733 369.11 41.0867 370.557 43.56C372.05 45.9867 372.797 48.8333 372.797 52.1C372.797 55.3667 372.05 58.2367 370.557 60.71C369.11 63.1367 367.127 65.05 364.607 66.45C362.134 67.8033 359.38 68.48 356.347 68.48H339.897ZM339.897 63.86V61.76H356.347C359.054 61.76 361.34 60.92 363.207 59.24C365.12 57.5133 366.077 55.1333 366.077 52.1C366.077 49.0667 365.12 46.71 363.207 45.03C361.34 43.3033 359.054 42.44 356.347 42.44H339.897V40.34H356.347C358.54 40.34 360.524 40.83 362.297 41.81C364.07 42.7433 365.494 44.0967 366.567 45.87C367.64 47.5967 368.177 49.6733 368.177 52.1C368.177 54.5267 367.64 56.6267 366.567 58.4C365.494 60.1267 364.07 61.48 362.297 62.46C360.524 63.3933 358.54 63.86 356.347 63.86H339.897ZM339.897 59.24V57.14H356.347C357.747 57.14 358.937 56.7433 359.917 55.95C360.944 55.11 361.457 53.8267 361.457 52.1C361.457 50.3267 360.944 49.0433 359.917 48.25C358.937 47.4567 357.747 47.06 356.347 47.06H339.897V44.96H356.347C358.354 44.96 360.057 45.5667 361.457 46.78C362.857 47.9933 363.557 49.7667 363.557 52.1C363.557 54.4333 362.857 56.2067 361.457 57.42C360.057 58.6333 358.354 59.24 356.347 59.24H339.897ZM369.927 92L360.057 70.37C360.384 70.3233 360.71 70.2767 361.037 70.23C361.41 70.1367 361.76 70.02 362.087 69.88L372.237 92H369.927ZM364.817 92L355.087 70.86C355.46 70.86 355.834 70.86 356.207 70.86C356.627 70.8133 357.024 70.7667 357.397 70.72L367.127 92H364.817ZM359.707 92L350.047 70.93H352.357L362.017 92H359.707ZM387.435 92V35.72H389.535V92H387.435ZM378.195 92V35.72H380.295V92H378.195ZM382.815 92V35.72H384.915V92H382.815ZM415.906 83.81C412.592 83.81 409.862 83.18 407.716 81.92C405.569 80.6133 404.402 78.8867 404.216 76.74L406.246 76.18C406.246 77.7667 407.132 79.0967 408.906 80.17C410.726 81.1967 413.059 81.71 415.906 81.71C418.846 81.71 421.226 81.1733 423.046 80.1C424.912 79.0267 425.846 77.65 425.846 75.97C425.846 74.3833 425.076 73.1 423.536 72.12C421.996 71.14 419.896 70.2767 417.236 69.53L412.896 68.27C407.109 66.59 402.746 64.4667 399.806 61.9C396.866 59.3333 395.396 55.81 395.396 51.33C395.396 48.11 396.282 45.2633 398.056 42.79C399.876 40.27 402.326 38.2867 405.406 36.84C408.532 35.3933 412.056 34.67 415.976 34.67C419.522 34.67 422.719 35.2533 425.566 36.42C428.459 37.54 430.839 39.15 432.706 41.25C434.619 43.35 435.832 45.8 436.346 48.6L434.316 49.16C433.896 46.6867 432.846 44.5167 431.166 42.65C429.486 40.7833 427.339 39.3367 424.726 38.31C422.112 37.2833 419.196 36.77 415.976 36.77C412.429 36.77 409.256 37.4233 406.456 38.73C403.702 39.99 401.509 41.7167 399.876 43.91C398.289 46.1033 397.496 48.6233 397.496 51.47C397.496 55.2967 398.826 58.3767 401.486 60.71C404.192 62.9967 408.182 64.8633 413.456 66.31L417.796 67.5C421.016 68.3867 423.512 69.46 425.286 70.72C427.059 71.98 427.946 73.6833 427.946 75.83C427.946 78.21 426.849 80.1467 424.656 81.64C422.462 83.0867 419.546 83.81 415.906 83.81ZM415.906 88.43C411.519 88.43 407.832 87.4733 404.846 85.56C401.906 83.6 400.179 81.0567 399.666 77.93L401.766 77.37C402.139 80.0767 403.586 82.2467 406.106 83.88C408.672 85.5133 411.939 86.33 415.906 86.33C418.799 86.33 421.342 85.8867 423.536 85C425.729 84.1133 427.432 82.8767 428.646 81.29C429.859 79.7033 430.466 77.8833 430.466 75.83C430.466 72.9833 429.392 70.7433 427.246 69.11C425.099 67.43 422.136 66.0767 418.356 65.05L414.086 63.86C409.559 62.6 406.082 61.0133 403.656 59.1C401.229 57.1867 400.016 54.6433 400.016 51.47C400.016 49.09 400.692 46.99 402.046 45.17C403.446 43.35 405.359 41.9267 407.786 40.9C410.212 39.8267 412.942 39.29 415.976 39.29C418.822 39.29 421.366 39.7333 423.606 40.62C425.892 41.46 427.759 42.6733 429.206 44.26C430.652 45.8467 431.539 47.69 431.866 49.79L429.766 50.35C429.439 47.6433 427.992 45.4733 425.426 43.84C422.906 42.2067 419.756 41.39 415.976 41.39C413.316 41.39 410.936 41.8333 408.836 42.72C406.736 43.56 405.079 44.75 403.866 46.29C402.699 47.7833 402.116 49.51 402.116 51.47C402.116 54.13 403.166 56.23 405.266 57.77C407.412 59.31 410.516 60.6633 414.576 61.83L418.776 63.02C423.116 64.2333 426.499 65.8433 428.926 67.85C431.352 69.81 432.566 72.47 432.566 75.83C432.566 78.3033 431.866 80.4967 430.466 82.41C429.066 84.2767 427.106 85.7467 424.586 86.82C422.112 87.8933 419.219 88.43 415.906 88.43ZM415.906 93.05C412.266 93.05 408.976 92.49 406.036 91.37C403.142 90.2033 400.739 88.5933 398.826 86.54C396.959 84.44 395.746 81.9667 395.186 79.12L397.216 78.56C397.682 81.08 398.732 83.2733 400.366 85.14C402.046 86.96 404.216 88.3833 406.876 89.41C409.536 90.4367 412.546 90.95 415.906 90.95C419.732 90.95 423.069 90.32 425.916 89.06C428.809 87.7533 431.049 85.98 432.636 83.74C434.269 81.4533 435.086 78.8167 435.086 75.83C435.086 71.8633 433.709 68.69 430.956 66.31C428.202 63.93 424.329 62.0167 419.336 60.57L415.206 59.38C411.799 58.4 409.186 57.3267 407.366 56.16C405.546 54.9933 404.636 53.43 404.636 51.47C404.636 49.1833 405.709 47.3633 407.856 46.01C410.002 44.61 412.709 43.91 415.976 43.91C419.149 43.91 421.762 44.5633 423.816 45.87C425.869 47.1767 427.036 48.88 427.316 50.98L425.286 51.54C425.192 49.9067 424.282 48.5767 422.556 47.55C420.876 46.5233 418.682 46.01 415.976 46.01C413.409 46.01 411.216 46.5 409.396 47.48C407.622 48.46 406.736 49.7433 406.736 51.33C406.736 52.7767 407.552 53.9433 409.186 54.83C410.866 55.7167 413.059 56.5567 415.766 57.35L419.756 58.54C425.402 60.22 429.719 62.4133 432.706 65.12C435.692 67.78 437.186 71.3967 437.186 75.97C437.186 79.2833 436.276 82.2467 434.456 84.86C432.682 87.4267 430.186 89.4333 426.966 90.88C423.792 92.3267 420.106 93.05 415.906 93.05ZM451.967 92V35.72H454.067V92H451.967ZM442.727 92V35.72H444.827V92H442.727ZM447.347 92V35.72H449.447V92H447.347ZM488.297 92V35.72H490.397V92H488.297ZM479.057 92V35.72H481.157V92H479.057ZM483.677 92V35.72H485.777V92H483.677ZM456.587 60.29V58.19H476.537V60.29H456.587ZM456.587 64.91V62.81H476.537V64.91H456.587ZM456.587 69.53V67.43H476.537V69.53H456.587Z" fill="black"/>
<path d="M228.61 168.05C224.27 168.05 220.513 167.117 217.34 165.25C214.213 163.337 211.787 160.77 210.06 157.55C208.38 154.33 207.54 150.783 207.54 146.91V145.44H209.64V146.91C209.64 150.41 210.387 153.607 211.88 156.5C213.42 159.393 215.59 161.703 218.39 163.43C221.237 165.11 224.643 165.95 228.61 165.95C232.577 165.95 235.96 165.11 238.76 163.43C241.607 161.703 243.777 159.393 245.27 156.5C246.81 153.607 247.58 150.41 247.58 146.91V110.72H249.68V146.91C249.68 150.783 248.817 154.33 247.09 157.55C245.41 160.77 243.007 163.337 239.88 165.25C236.753 167.117 232.997 168.05 228.61 168.05ZM228.61 158.81C225.95 158.81 223.733 158.273 221.96 157.2C220.233 156.127 218.927 154.703 218.04 152.93C217.2 151.11 216.78 149.103 216.78 146.91V145.44H218.88V146.91C218.88 149.617 219.65 151.927 221.19 153.84C222.73 155.753 225.203 156.71 228.61 156.71C232.017 156.71 234.49 155.753 236.03 153.84C237.57 151.927 238.34 149.617 238.34 146.91V110.72H240.44V146.91C240.44 149.103 239.997 151.11 239.11 152.93C238.27 154.703 236.963 156.127 235.19 157.2C233.463 158.273 231.27 158.81 228.61 158.81ZM228.61 163.43C225.11 163.43 222.123 162.683 219.65 161.19C217.223 159.697 215.357 157.713 214.05 155.24C212.79 152.72 212.16 149.943 212.16 146.91V145.44H214.26V146.91C214.26 149.57 214.797 151.997 215.87 154.19C216.99 156.337 218.623 158.063 220.77 159.37C222.917 160.677 225.53 161.33 228.61 161.33C231.737 161.33 234.35 160.677 236.45 159.37C238.597 158.063 240.207 156.337 241.28 154.19C242.4 151.997 242.96 149.57 242.96 146.91V110.72H245.06V146.91C245.06 149.943 244.407 152.72 243.1 155.24C241.84 157.713 239.973 159.697 237.5 161.19C235.073 162.683 232.11 163.43 228.61 163.43ZM262.249 167L282.619 110.72H284.859L264.489 167H262.249ZM252.449 167L272.819 110.72H274.989L254.689 167H252.449ZM257.349 167L277.649 110.72H279.959L259.589 167H257.349ZM303.269 167L284.999 116.53L286.119 113.38L305.509 167H303.269ZM298.369 167L282.619 123.39L283.669 120.17L300.609 167H298.369ZM293.469 167L280.169 130.18L281.289 127.03L295.709 167H293.469ZM273.659 148.38L274.429 146.28H283.669L284.439 148.38H273.659ZM271.979 153.07L272.749 150.97H285.349L286.119 153.07H271.979ZM270.299 157.69L271.069 155.59H287.029L287.799 157.69H270.299ZM357.018 167V110.72H359.118V167H357.018ZM347.778 167V110.72H349.878V167H347.778ZM352.398 167V110.72H354.498V167H352.398ZM319.638 167V110.72H321.738V167H319.638ZM310.398 167V110.72H312.498V167H310.398ZM315.018 167V110.72H317.118V167H315.018ZM345.258 147.61L324.258 117.44V113.73L345.258 143.9V147.61ZM345.258 155.73L324.258 125.56V121.85L345.258 152.02V155.73ZM345.258 163.85L324.258 133.68V129.97L345.258 160.14V163.85ZM394.041 138.3V136.2H421.551V138.3H394.041ZM394.041 142.92V140.82H421.551V142.92H394.041ZM394.041 147.54V145.44H421.551V147.54H394.041ZM393.901 168.05C389.515 168.05 385.525 167.303 381.931 165.81C378.385 164.27 375.328 162.17 372.761 159.51C370.195 156.85 368.211 153.77 366.811 150.27C365.411 146.723 364.711 142.92 364.711 138.86C364.711 134.8 365.411 131.02 366.811 127.52C368.211 123.973 370.195 120.87 372.761 118.21C375.328 115.55 378.385 113.473 381.931 111.98C385.525 110.44 389.515 109.67 393.901 109.67C399.501 109.67 404.448 110.907 408.741 113.38C413.035 115.807 416.395 119.05 418.821 123.11L417.001 124.3C414.761 120.52 411.658 117.487 407.691 115.2C403.771 112.913 399.175 111.77 393.901 111.77C389.795 111.77 386.085 112.47 382.771 113.87C379.458 115.27 376.611 117.207 374.231 119.68C371.851 122.153 370.008 125.047 368.701 128.36C367.441 131.627 366.811 135.127 366.811 138.86C366.811 142.593 367.441 146.117 368.701 149.43C370.008 152.697 371.851 155.567 374.231 158.04C376.611 160.513 379.458 162.45 382.771 163.85C386.085 165.25 389.795 165.95 393.901 165.95C397.915 165.95 401.555 165.273 404.821 163.92C408.088 162.567 410.911 160.677 413.291 158.25C415.671 155.823 417.515 153.047 418.821 149.92H421.131C419.778 153.467 417.795 156.617 415.181 159.37C412.615 162.077 409.535 164.2 405.941 165.74C402.348 167.28 398.335 168.05 393.901 168.05ZM393.901 158.81C389.748 158.81 386.178 157.923 383.191 156.15C380.205 154.33 377.918 151.903 376.331 148.87C374.745 145.837 373.951 142.5 373.951 138.86C373.951 135.173 374.745 131.837 376.331 128.85C377.918 125.817 380.205 123.413 383.191 121.64C386.178 119.82 389.748 118.91 393.901 118.91C397.915 118.91 401.368 119.773 404.261 121.5C407.201 123.18 409.465 125.42 411.051 128.22L409.231 129.41C407.831 126.89 405.825 124.883 403.211 123.39C400.598 121.85 397.495 121.08 393.901 121.08C390.168 121.08 386.948 121.897 384.241 123.53C381.581 125.117 379.551 127.263 378.151 129.97C376.751 132.63 376.051 135.593 376.051 138.86C376.051 142.127 376.751 145.113 378.151 147.82C379.551 150.48 381.581 152.627 384.241 154.26C386.948 155.847 390.168 156.64 393.901 156.64C397.121 156.64 399.945 156.033 402.371 154.82C404.798 153.56 406.735 151.927 408.181 149.92H410.841C409.208 152.627 406.945 154.797 404.051 156.43C401.158 158.017 397.775 158.81 393.901 158.81ZM393.901 163.43C390.168 163.43 386.785 162.8 383.751 161.54C380.765 160.233 378.175 158.46 375.981 156.22C373.835 153.98 372.178 151.39 371.011 148.45C369.891 145.463 369.331 142.267 369.331 138.86C369.331 135.453 369.891 132.28 371.011 129.34C372.178 126.353 373.835 123.74 375.981 121.5C378.175 119.213 380.765 117.44 383.751 116.18C386.785 114.92 390.168 114.29 393.901 114.29C398.708 114.29 402.908 115.34 406.501 117.44C410.141 119.493 412.965 122.223 414.971 125.63L413.151 126.82C411.285 123.693 408.718 121.197 405.451 119.33C402.185 117.417 398.335 116.46 393.901 116.46C389.328 116.46 385.338 117.463 381.931 119.47C378.571 121.477 375.981 124.183 374.161 127.59C372.341 130.95 371.431 134.707 371.431 138.86C371.431 142.967 372.341 146.723 374.161 150.13C375.981 153.537 378.571 156.243 381.931 158.25C385.338 160.257 389.328 161.26 393.901 161.26C398.521 161.26 402.535 160.233 405.941 158.18C409.348 156.08 411.938 153.327 413.711 149.92H416.091C414.225 153.933 411.378 157.2 407.551 159.72C403.725 162.193 399.175 163.43 393.901 163.43ZM436.396 167V110.72H438.496V167H436.396ZM427.156 167V110.72H429.256V167H427.156ZM431.776 167V110.72H433.876V167H431.776ZM459.337 167V164.9H467.037C471.003 164.9 474.62 164.27 477.887 163.01C481.2 161.703 484.07 159.883 486.497 157.55C488.923 155.217 490.79 152.463 492.097 149.29C493.45 146.117 494.127 142.64 494.127 138.86C494.127 135.08 493.45 131.603 492.097 128.43C490.79 125.257 488.923 122.503 486.497 120.17C484.07 117.837 481.2 116.04 477.887 114.78C474.62 113.473 471.003 112.82 467.037 112.82H459.337V110.72H467.107C471.353 110.72 475.25 111.42 478.797 112.82C482.343 114.22 485.423 116.18 488.037 118.7C490.65 121.22 492.68 124.183 494.127 127.59C495.573 130.997 496.297 134.753 496.297 138.86C496.297 142.967 495.573 146.747 494.127 150.2C492.68 153.607 490.65 156.57 488.037 159.09C485.423 161.61 482.343 163.57 478.797 164.97C475.25 166.323 471.353 167 467.107 167H459.337ZM454.717 167V110.72H456.817V167H454.717ZM445.477 167V110.72H447.577V167H445.477ZM450.097 167V110.72H452.197V167H450.097ZM459.337 162.38V160.28H467.037C471.47 160.28 475.367 159.37 478.727 157.55C482.087 155.73 484.723 153.21 486.637 149.99C488.55 146.723 489.507 143.013 489.507 138.86C489.507 134.66 488.55 130.95 486.637 127.73C484.723 124.51 482.087 121.99 478.727 120.17C475.367 118.35 471.47 117.44 467.037 117.44H459.337V115.34H467.107C471.913 115.34 476.16 116.367 479.847 118.42C483.533 120.427 486.427 123.203 488.527 126.75C490.627 130.25 491.677 134.287 491.677 138.86C491.677 143.433 490.627 147.493 488.527 151.04C486.427 154.587 483.533 157.363 479.847 159.37C476.16 161.377 471.913 162.38 467.107 162.38H459.337ZM459.337 157.76V155.66H467.037C470.583 155.66 473.687 154.96 476.347 153.56C479.007 152.16 481.083 150.2 482.577 147.68C484.07 145.113 484.817 142.173 484.817 138.86C484.817 135.5 484.07 132.56 482.577 130.04C481.083 127.52 479.007 125.56 476.347 124.16C473.687 122.76 470.583 122.06 467.037 122.06H459.337V119.96H467.107C471.027 119.96 474.48 120.777 477.467 122.41C480.453 123.997 482.787 126.213 484.467 129.06C486.147 131.86 486.987 135.127 486.987 138.86C486.987 142.593 486.147 145.883 484.467 148.73C482.787 151.577 480.453 153.793 477.467 155.38C474.48 156.967 471.027 157.76 467.107 157.76H459.337Z" fill="black"/>
</svg>
